<svg xmlns="http://www.w3.org/2000/svg" width="720" height="1120" viewBox="0 0 720 1120" role="img" aria-labelledby="title desc">
  <title id="title">设置 App 关闭后立即运行示意图</title>
  <desc id="desc">选择 App，勾选已关闭，选择立即运行。</desc>
  <defs>
    <linearGradient id="bg" x1="0" x2="1" y1="0" y2="1">
      <stop offset="0" stop-color="#0a3a96"/>
      <stop offset="0.52" stop-color="#6b4fd2"/>
      <stop offset="1" stop-color="#ff6aa3"/>
    </linearGradient>
    <filter id="shadow" x="-20%" y="-20%" width="140%" height="140%">
      <feDropShadow dx="0" dy="18" stdDeviation="24" flood-color="#1d1d35" flood-opacity="0.32"/>
    </filter>
  </defs>
  <rect width="720" height="1120" fill="url(#bg)"/>
  <rect x="130" y="118" width="460" height="884" rx="72" fill="#f3f3f7" filter="url(#shadow)"/>
  <rect x="290" y="138" width="140" height="40" rx="20" fill="#050505"/>
  <text x="190" y="170" font-family="-apple-system,BlinkMacSystemFont,'PingFang SC',sans-serif" font-size="24" font-weight="700" fill="#111">15:42</text>
  <circle cx="174" cy="256" r="34" fill="#fff"/>
  <path d="M184 238 L162 256 L184 274" stroke="#111" stroke-width="6" fill="none" stroke-linecap="round" stroke-linejoin="round"/>
  <rect x="475" y="232" width="86" height="46" rx="23" fill="#c8c8cd"/>
  <text x="518" y="263" text-anchor="middle" font-family="-apple-system,BlinkMacSystemFont,'PingFang SC',sans-serif" font-size="22" font-weight="700" fill="#fff">下一步</text>
  <text x="150" y="338" font-family="-apple-system,BlinkMacSystemFont,'PingFang SC',sans-serif" font-size="36" font-weight="800" fill="#111">当</text>
  <rect x="150" y="382" width="420" height="72" rx="30" fill="#fff"/>
  <text x="172" y="428" font-family="-apple-system,BlinkMacSystemFont,'PingFang SC',sans-serif" font-size="24" fill="#111">App</text>
  <text x="535" y="428" text-anchor="end" font-family="-apple-system,BlinkMacSystemFont,'PingFang SC',sans-serif" font-size="22" fill="#0a84ff">选取</text>
  <rect x="150" y="504" width="420" height="200" rx="28" fill="#fff"/>
  <rect x="232" y="552" width="54" height="54" rx="12" fill="#666"/>
  <text x="259" y="595" text-anchor="middle" font-family="-apple-system,BlinkMacSystemFont,'PingFang SC',sans-serif" font-size="54" fill="#fff">↗</text>
  <rect x="438" y="552" width="54" height="54" rx="12" fill="#666"/>
  <text x="465" y="594" text-anchor="middle" font-family="-apple-system,BlinkMacSystemFont,'PingFang SC',sans-serif" font-size="54" fill="#fff">×</text>
  <text x="260" y="656" text-anchor="middle" font-family="-apple-system,BlinkMacSystemFont,'PingFang SC',sans-serif" font-size="23" font-weight="700" fill="#111">已打开</text>
  <text x="465" y="656" text-anchor="middle" font-family="-apple-system,BlinkMacSystemFont,'PingFang SC',sans-serif" font-size="23" font-weight="700" fill="#111">已关闭</text>
  <circle cx="260" cy="690" r="16" fill="none" stroke="#c4c4c8" stroke-width="3"/>
  <circle cx="465" cy="690" r="17" fill="#0a84ff"/>
  <path d="M457 690 l7 7 l13 -18" stroke="#fff" stroke-width="5" fill="none" stroke-linecap="round" stroke-linejoin="round"/>
  <rect x="150" y="748" width="420" height="178" rx="28" fill="#fff"/>
  <g font-family="-apple-system,BlinkMacSystemFont,'PingFang SC',sans-serif" font-size="23" fill="#111">
    <text x="172" y="794">确认后运行</text>
    <line x1="172" y1="820" x2="552" y2="820" stroke="#e6e6ea"/>
    <text x="172" y="860">立即运行</text>
    <line x1="172" y1="886" x2="552" y2="886" stroke="#e6e6ea"/>
    <text x="172" y="918">运行时通知</text>
  </g>
  <path d="M532 846 l8 8 l18 -27" stroke="#0a84ff" stroke-width="5" fill="none" stroke-linecap="round" stroke-linejoin="round"/>
  <rect x="496" y="894" width="76" height="38" rx="19" fill="#c4c4c8"/>
  <circle cx="516" cy="913" r="17" fill="#fff"/>
  <circle cx="448" cy="334" r="30" fill="#ff3045"/>
  <text x="448" y="346" text-anchor="middle" font-family="-apple-system,BlinkMacSystemFont,'PingFang SC',sans-serif" font-size="31" font-weight="800" fill="#fff">1</text>
  <path d="M466 356 L520 407" stroke="#ff3045" stroke-width="7" fill="none" stroke-linecap="round"/>
  <path d="M520 407 l-33 -8 l23 -24 z" fill="#ff3045"/>
  <circle cx="330" cy="635" r="30" fill="#ff3045"/>
  <text x="330" y="647" text-anchor="middle" font-family="-apple-system,BlinkMacSystemFont,'PingFang SC',sans-serif" font-size="31" font-weight="800" fill="#fff">2</text>
  <path d="M354 655 L432 682" stroke="#ff3045" stroke-width="7" fill="none" stroke-linecap="round"/>
  <path d="M432 682 l-34 8 l11 -33 z" fill="#ff3045"/>
  <circle cx="405" cy="775" r="30" fill="#ff3045"/>
  <text x="405" y="787" text-anchor="middle" font-family="-apple-system,BlinkMacSystemFont,'PingFang SC',sans-serif" font-size="31" font-weight="800" fill="#fff">3</text>
  <path d="M429 793 L520 842" stroke="#ff3045" stroke-width="7" fill="none" stroke-linecap="round"/>
  <path d="M520 842 l-34 2 l17 -30 z" fill="#ff3045"/>
</svg>
