<svg xmlns="http://www.w3.org/2000/svg" width="720" height="1120" viewBox="0 0 720 1120" role="img" aria-labelledby="title desc">
  <title id="title">快捷指令自动化入口示意图</title>
  <desc id="desc">切换到自动化标签并点击右上角加号。</desc>
  <defs>
    <linearGradient id="bg" x1="0" x2="1" y1="0" y2="1">
      <stop offset="0" stop-color="#0a3a96"/>
      <stop offset="0.52" stop-color="#6b4fd2"/>
      <stop offset="1" stop-color="#ff6aa3"/>
    </linearGradient>
    <filter id="shadow" x="-20%" y="-20%" width="140%" height="140%">
      <feDropShadow dx="0" dy="18" stdDeviation="24" flood-color="#1d1d35" flood-opacity="0.32"/>
    </filter>
  </defs>
  <rect width="720" height="1120" fill="url(#bg)"/>
  <rect x="130" y="118" width="460" height="884" rx="72" fill="#f3f3f7" filter="url(#shadow)"/>
  <rect x="290" y="138" width="140" height="40" rx="20" fill="#050505"/>
  <text x="190" y="170" font-family="-apple-system,BlinkMacSystemFont,'PingFang SC',sans-serif" font-size="24" font-weight="700" fill="#111">15:39</text>
  <circle cx="548" cy="252" r="36" fill="#fff"/>
  <text x="548" y="267" text-anchor="middle" font-family="-apple-system,BlinkMacSystemFont,'PingFang SC',sans-serif" font-size="44" fill="#111">+</text>
  <text x="170" y="330" font-family="-apple-system,BlinkMacSystemFont,'PingFang SC',sans-serif" font-size="40" font-weight="800" fill="#111">自动化</text>
  <text x="170" y="386" font-family="-apple-system,BlinkMacSystemFont,'PingFang SC',sans-serif" font-size="28" font-weight="700" fill="#111">个人</text>
  <rect x="168" y="420" width="384" height="92" rx="26" fill="#fff"/>
  <circle cx="206" cy="466" r="13" fill="#ff8a19"/>
  <text x="250" y="462" font-family="-apple-system,BlinkMacSystemFont,'PingFang SC',sans-serif" font-size="22" fill="#111">08:00，每天</text>
  <text x="250" y="492" font-family="-apple-system,BlinkMacSystemFont,'PingFang SC',sans-serif" font-size="17" fill="#999">运行快捷指令</text>
  <rect x="168" y="516" width="384" height="92" rx="0" fill="#fff"/>
  <text x="250" y="558" font-family="-apple-system,BlinkMacSystemFont,'PingFang SC',sans-serif" font-size="22" fill="#111">09:00，每天</text>
  <text x="250" y="588" font-family="-apple-system,BlinkMacSystemFont,'PingFang SC',sans-serif" font-size="17" fill="#999">运行快捷指令</text>
  <rect x="168" y="612" width="384" height="92" rx="0" fill="#fff"/>
  <text x="250" y="656" font-family="-apple-system,BlinkMacSystemFont,'PingFang SC',sans-serif" font-size="21" font-weight="700" fill="#111">我离开 App 时</text>
  <text x="250" y="686" font-family="-apple-system,BlinkMacSystemFont,'PingFang SC',sans-serif" font-size="17" fill="#999">开始记录</text>
  <rect x="190" y="876" width="340" height="70" rx="35" fill="#fff" opacity="0.95"/>
  <rect x="298" y="882" width="124" height="58" rx="29" fill="#e7e7ec"/>
  <text x="360" y="920" text-anchor="middle" font-family="-apple-system,BlinkMacSystemFont,'PingFang SC',sans-serif" font-size="17" font-weight="700" fill="#0a84ff">自动化</text>
  <text x="254" y="920" text-anchor="middle" font-family="-apple-system,BlinkMacSystemFont,'PingFang SC',sans-serif" font-size="16" fill="#111">资料库</text>
  <text x="466" y="920" text-anchor="middle" font-family="-apple-system,BlinkMacSystemFont,'PingFang SC',sans-serif" font-size="16" fill="#111">快捷指令中心</text>
  <circle cx="454" cy="850" r="30" fill="#ff3045"/>
  <text x="454" y="862" text-anchor="middle" font-family="-apple-system,BlinkMacSystemFont,'PingFang SC',sans-serif" font-size="31" font-weight="800" fill="#fff">1</text>
  <path d="M435 830 L373 898" stroke="#ff3045" stroke-width="7" fill="none" stroke-linecap="round"/>
  <path d="M373 898 l34 -8 l-17 -29 z" fill="#ff3045"/>
  <circle cx="448" cy="306" r="30" fill="#ff3045"/>
  <text x="448" y="318" text-anchor="middle" font-family="-apple-system,BlinkMacSystemFont,'PingFang SC',sans-serif" font-size="31" font-weight="800" fill="#fff">2</text>
  <path d="M472 291 L526 257" stroke="#ff3045" stroke-width="7" fill="none" stroke-linecap="round"/>
  <path d="M526 257 l-13 32 l-20 -31 z" fill="#ff3045"/>
</svg>
